HIERARCHY
ROOT Hips
{
	OFFSET 0.000000 0.000000 0.000000
	CHANNELS 6 Xposition Yposition Zposition Zrotation Yrotation Xrotation 
	JOINT LHipJoint
	{
		OFFSET 0.000000 0.000000 0.000000
		CHANNELS 3 Zrotation Yrotation Xrotation
		JOINT LeftUpLeg
		{
			OFFSET 1.363060 -1.794630 0.839290
			CHANNELS 3 Zrotation Yrotation Xrotation
			JOINT LeftLeg
			{
				OFFSET 2.448110 -6.726130 0.000000
				CHANNELS 3 Zrotation Yrotation Xrotation
				JOINT LeftFoot
				{
					OFFSET 2.562200 -7.039590 0.000000
					CHANNELS 3 Zrotation Yrotation Xrotation
					JOINT LeftToeBase
					{
						OFFSET 0.157640 -0.433110 2.322550
						CHANNELS 3 Zrotation Yrotation Xrotation
						End Site
						{
							OFFSET 0.000000 0.000000 0.000000
						}
					}
				}
			}
		}
	}
	JOINT RHipJoint
	{
		OFFSET 0.000000 0.000000 0.000000
		CHANNELS 3 Zrotation Yrotation Xrotation
		JOINT RightUpLeg
		{
			OFFSET -1.305520 -1.794630 0.839290
			CHANNELS 3 Zrotation Yrotation Xrotation
			JOINT RightLeg
			{
				OFFSET -2.542530 -6.985550 0.000000
				CHANNELS 3 Zrotation Yrotation Xrotation
				JOINT RightFoot
				{
					OFFSET -2.568260 -7.056230 0.000000
					CHANNELS 3 Zrotation Yrotation Xrotation
					JOINT RightToeBase
					{
						OFFSET -0.164730 -0.452590 2.363150
						CHANNELS 3 Zrotation Yrotation Xrotation
						End Site
						{
							OFFSET 0.000000 0.000000 0.000000
						}
					}
				}
			}
		}
	}
	JOINT LowerBack
	{
		OFFSET 0.000000 0.000000 0.000000
		CHANNELS 3 Zrotation Yrotation Xrotation
		JOINT Spine
		{
			OFFSET 0.028270 2.035590 -0.193380
			CHANNELS 3 Zrotation Yrotation Xrotation
			JOINT Spine1
			{
				OFFSET 0.056720 2.048850 -0.042750
				CHANNELS 3 Zrotation Yrotation Xrotation
				JOINT Neck
				{
					OFFSET 0.000000 0.000000 0.000000
					CHANNELS 3 Zrotation Yrotation Xrotation
					JOINT Neck1
					{
						OFFSET -0.054170 1.746240 0.172020
						CHANNELS 3 Zrotation Yrotation Xrotation
						JOINT Head
						{
							OFFSET 0.104070 1.761360 -0.123970
							CHANNELS 3 Zrotation Yrotation Xrotation
							End Site
							{
								OFFSET 0.000000 0.000000 0.000000
							}
						}
					}
				}
				JOINT LeftShoulder
				{
					OFFSET 0.000000 0.000000 0.000000
					CHANNELS 3 Zrotation Yrotation Xrotation
					JOINT LeftArm
					{
						OFFSET 3.362410 1.200890 -0.311210
						CHANNELS 3 Zrotation Yrotation Xrotation
						JOINT LeftForeArm
						{
							OFFSET 4.983000 -0.000000 -0.000000
							CHANNELS 3 Zrotation Yrotation Xrotation
							JOINT LeftHand
							{
								OFFSET 3.483560 -0.000000 -0.000000
								CHANNELS 3 Zrotation Yrotation Xrotation
								JOINT LeftFingerBase
								{
									OFFSET 0.000000 0.000000 0.000000
									CHANNELS 3 Zrotation Yrotation Xrotation
									JOINT LeftHandIndex1
									{
										OFFSET 0.715260 -0.000000 -0.000000
										CHANNELS 3 Zrotation Yrotation Xrotation
										End Site
										{
											OFFSET 0.000000 0.000000 0.000000
										}
									}
								}
								JOINT LThumb
								{
									OFFSET 0.000000 0.000000 0.000000
									CHANNELS 3 Zrotation Yrotation Xrotation
									End Site
									{
										OFFSET 0.000000 0.000000 0.000000
									}
								}
							}
						}
					}
				}
				JOINT RightShoulder
				{
					OFFSET 0.000000 0.000000 0.000000
					CHANNELS 3 Zrotation Yrotation Xrotation
					JOINT RightArm
					{
						OFFSET -3.136600 1.374050 -0.404650
						CHANNELS 3 Zrotation Yrotation Xrotation
						JOINT RightForeArm
						{
							OFFSET -5.241900 -0.000000 -0.000000
							CHANNELS 3 Zrotation Yrotation Xrotation
							JOINT RightHand
							{
								OFFSET -3.444170 -0.000000 -0.000000
								CHANNELS 3 Zrotation Yrotation Xrotation
								JOINT RightFingerBase
								{
									OFFSET 0.000000 0.000000 0.000000
									CHANNELS 3 Zrotation Yrotation Xrotation
									JOINT RightHandIndex1
									{
										OFFSET -0.622530 -0.000000 -0.000000
										CHANNELS 3 Zrotation Yrotation Xrotation
										End Site
										{
											OFFSET 0.000000 0.000000 0.000000
										}
									}
								}
								JOINT RThumb
								{
									OFFSET 0.000000 0.000000 0.000000
									CHANNELS 3 Zrotation Yrotation Xrotation
									End Site
									{
										OFFSET 0.000000 0.000000 0.000000
									}
								}
							}
						}
					}
				}
			}
		}
	}
}
MOTION
Frames: 4
Frame Time: 0.008333
1.731700 17.200045 0.527496 -26.235060 -81.793606 15.733101 -11.178309 3.005038 0.900432 -5.293362 11.938848 5.574644 -0.752214 0.245668 11.691812 2.736189 17.180155 -9.279663 -0.502900 0.000000 -32.920601 10.724774 -2.649978 -3.727444 -3.970665 -29.817540 -6.125044 -0.202787 -2.985392 42.718407 -1.230766 -4.358852 15.116106 -1.262400 -0.000000 -83.483000 -6.600316 -3.116573 0.807420 -1.543834 -2.776145 -2.270697 -3.627287 -2.784786 1.327277 7.910522 -23.562664 -7.629273 0.180063 0.018083 0.025325 0.000000 0.000000 0.000000 8.437529 17.066838 -0.092637 -56.042056 28.643791 0.587071 -3.573675 -38.343486 0.001434 -4.566098 0.451547 -0.016318 -0.118594 0.015183 -0.000000 0.000000 0.000000 0.000000 0.000000 0.000000 0.000000 3.986043 -20.101480 -0.828213 58.569669 -15.246180 24.495437 1.584621 49.434974 0.005555 2.989788 4.294504 0.112470 0.032109 -0.046434 -0.000000 0.000000 0.000000 0.000000 0.000000 0.000000 0.000000 
1.742340 17.194425 0.559323 -26.806831 -81.260766 16.041554 -11.198774 2.973658 0.866749 -4.981987 11.931856 5.850794 -0.741970 0.252015 11.712648 2.670533 16.739427 -9.387227 -0.537400 -0.000000 -33.073800 10.796732 -2.525163 -3.862176 -4.113125 -30.310274 -7.646341 -0.339676 -3.130384 45.663527 -1.355282 -4.685105 16.322176 -1.387000 0.000000 -82.045400 -6.593957 -3.177653 1.008638 -1.553015 -2.844139 -2.237206 -3.667562 -2.848529 1.286879 7.977683 -23.572366 -7.632078 0.181136 0.018510 0.021785 0.000000 0.000000 0.000000 8.586114 16.790386 -0.103760 -55.847497 28.559923 0.839326 -3.497545 -39.099906 0.001643 -4.607711 0.469616 -0.017121 -0.114406 0.017753 -0.000000 0.000000 0.000000 0.000000 0.000000 0.000000 0.000000 4.038615 -20.117086 -0.806099 58.793359 -15.324563 24.529928 1.596698 49.182610 0.005509 3.034609 4.293032 0.114166 0.031827 -0.045406 -0.000000 0.000000 0.000000 0.000000 0.000000 0.000000 0.000000 
1.754983 17.189304 0.589580 -27.525600 -80.770671 16.513384 -11.222151 2.933196 0.826458 -4.657372 11.935343 6.087107 -0.727413 0.258145 11.767088 2.611003 16.337728 -9.494142 -0.569801 -0.000000 -33.222500 10.855214 -2.396005 -3.985010 -4.130373 -30.660926 -9.288749 -0.463090 -3.286697 48.677864 -1.478154 -5.136227 17.142366 -1.556000 -0.000000 -80.225401 -6.568371 -3.237241 1.204083 -1.558062 -2.911297 -2.204374 -3.708857 -2.911618 1.249170 8.042395 -23.571240 -7.638711 0.181397 0.018931 0.017235 0.000000 0.000000 0.000000 8.729591 16.512721 -0.112740 -55.671209 28.464308 1.039570 -3.425213 -39.820020 0.001872 -4.655207 0.483962 -0.017824 -0.110300 0.020398 -0.000000 0.000000 0.000000 0.000000 0.000000 0.000000 0.000000 4.086256 -20.121677 -0.782481 59.045967 -15.365273 24.560787 1.609711 48.910496 0.005468 3.075303 4.294507 0.115664 0.031620 -0.044430 -0.000000 0.000000 0.000000 0.000000 0.000000 0.000000 0.000000 
1.769942 17.184862 0.618324 -28.401926 -80.333017 17.155380 -11.248811 2.884147 0.778971 -4.322508 11.945153 6.291489 -0.707647 0.264782 11.849853 2.560107 15.991690 -9.595977 -0.599200 0.000000 -33.358700 10.900951 -2.265940 -4.099371 -4.021333 -30.878209 -11.063346 -0.578382 -3.460846 51.766283 -1.588684 -5.662729 17.515046 -1.745100 0.000001 -78.231000 -6.519511 -3.294810 1.397558 -1.557993 -2.977175 -2.171459 -3.750597 -2.973578 1.214471 8.102261 -23.556194 -7.648971 0.180684 0.019329 0.011703 0.000000 0.000000 0.000000 8.862523 16.240435 -0.118975 -55.514736 28.355117 1.185909 -3.357360 -40.494349 0.002114 -4.702407 0.495841 -0.018426 -0.106399 0.023078 -0.000000 0.000000 0.000000 0.000000 0.000000 0.000000 0.000000 4.126584 -20.112164 -0.757994 59.326361 -15.360993 24.588193 1.623374 48.620586 0.005435 3.111257 4.298909 0.117162 0.031473 -0.043527 -0.000000 0.000000 0.000000 0.000000 0.000000 0.000000 0.000000 
